<?xml version="1.0" ?><svg height="500" id="svg2" version="1.1" width="500" xmlns="http://www.w3.org/2000/svg" xmlns:cc="http://creativecommons.org/ns#" xmlns:dc="http://purl.org/dc/elements/1.1/" xmlns:inkscape="http://www.inkscape.org/namespaces/inkscape" xmlns:rdf="http://www.w3.org/1999/02/22-rdf-syntax-ns#" xmlns:sodipodi="http://sodipodi.sourceforge.net/DTD/sodipodi-0.dtd" xmlns:svg="http://www.w3.org/2000/svg"><defs id="defs4"/><g id="layer1" transform="translate(0,-552.36218)"><path d="M 50 0 C 22.3 0 -9.9457479e-017 22.3 0 50 L 0 450 C 0 477.7 22.3 500 50 500 L 450 500 C 477.7 500 500 477.7 500 450 L 500 50 C 500 22.3 477.7 -9.9457479e-017 450 0 L 50 0 z M 380.125 49.5 C 413.36003 48.63363 448.25 82.50915 448.25 114.53125 C 448.25 127.74151 448.29472 155.07262 448.3125 176.5 L 328.34375 176.5 L 340.0625 190 L 448.3125 190 C 448.36778 252.34382 448.4375 325.80946 448.4375 380.09375 C 448.4375 415.92215 414.1059 448.25 379.15625 448.25 C 314.63954 448.25 160.2962 448.4375 116.21875 448.4375 C 83.939202 448.4375 49.28125 413.46705 49.28125 381.1875 C 49.28125 349.82922 49.430767 260.03703 49.53125 190 L 157.75 190 L 169.46875 176.5 L 49.53125 176.5 C 49.560887 154.86155 49.625 123.09469 49.625 114.5625 C 49.625 97.066893 61.414114 77.914844 77.1875 64.9375 L 77.1875 164.375 L 155.09375 164.375 L 155.09375 49.625 C 220.30625 49.936493 340.53759 50.531987 380.125 49.5 z M 352.78125 77.125 C 346.71971 77.12153 339.65325 83.6572 339.65625 89.71875 C 339.66425 106.57371 339.65625 125.574 339.65625 141.09375 C 339.65625 147.15482 346.68892 153.72075 352.75 153.71875 C 371.24004 153.71375 385.70877 153.71875 403.0625 153.71875 C 409.05695 153.71875 415.84375 147.0882 415.84375 141.09375 L 415.84375 89.71875 C 415.84375 83.73892 409.04232 77.125 403.0625 77.125 C 385.1038 77.125 369.43272 77.135 352.78125 77.125 z M 248.90625 147.65625 C 192.34943 147.65625 146.5 193.20095 146.5 249.375 C 146.5 305.54904 192.34943 351.09375 248.90625 351.09375 C 305.46307 351.09375 351.3125 305.54904 351.3125 249.375 C 351.3125 193.20095 305.46307 147.65625 248.90625 147.65625 z M 248.96875 159.03125 C 298.4678 159.03125 338.59375 199.16439 338.59375 248.6875 C 338.59375 298.21061 298.4678 338.34375 248.96875 338.34375 C 199.4697 338.34375 159.34375 298.21061 159.34375 248.6875 C 159.34375 199.16439 199.4697 159.03125 248.96875 159.03125 z M 249.8125 180.875 C 212.90378 180.875 182.96875 210.81003 182.96875 247.71875 C 182.96875 284.62747 212.90378 314.53125 249.8125 314.53125 C 286.72122 314.53125 316.625 284.62747 316.625 247.71875 C 316.625 210.81003 286.72122 180.875 249.8125 180.875 z " id="rect3824" style="opacity:1;fill:#000000;fill-opacity:1;stroke:none" transform="translate(0,552.36218)"/></g></svg>