<?xml version="1.0" ?><svg height="500" id="svg2" version="1.1" width="500" xmlns="http://www.w3.org/2000/svg" xmlns:cc="http://creativecommons.org/ns#" xmlns:dc="http://purl.org/dc/elements/1.1/" xmlns:inkscape="http://www.inkscape.org/namespaces/inkscape" xmlns:rdf="http://www.w3.org/1999/02/22-rdf-syntax-ns#" xmlns:sodipodi="http://sodipodi.sourceforge.net/DTD/sodipodi-0.dtd" xmlns:svg="http://www.w3.org/2000/svg"><defs id="defs4"/><g id="layer1" transform="translate(0,-552.36218)"><path d="M 50 0 C 22.3 0 -1.0018638e-016 22.3 0 50 L 0 450 C 0 477.7 22.3 500 50 500 L 450 500 C 477.7 500 500 477.7 500 450 L 500 50 C 500 22.3 477.7 -1.0018638e-016 450 0 L 50 0 z M 175.9375 75.5625 C 218.89766 75.5625 221.74622 119.39181 221.875 163.375 L 346 163.375 C 365.67368 163.375 380.375 183.36743 380.375 213.84375 C 380.375 244.34153 348.57523 251.15625 331.90625 251.15625 L 220.5 251.15625 C 219.92767 269.8069 219.34375 285.04536 219.34375 294.28125 C 219.34375 313.74031 226.90514 334.71875 274.34375 334.71875 L 341.03125 334.71875 C 357.70022 334.71875 382.375 347.3502 382.375 382.5625 C 382.375 417.77481 347.57079 421 335.4375 421 C 323.30421 421 256.14114 419.40625 239 419.40625 C 221.85886 419.40625 132.5 391.52727 132.5 293.1875 C 132.5 275.63858 132.4805 258.09447 132.4375 240.53125 C 132.36596 224.21282 132.02605 207.86473 131.96875 191.625 C 131.95445 186.90332 131.93485 182.17613 131.90625 177.46875 C 131.80609 152.67992 129.67946 124.80872 137.65625 101 C 143.73721 82.87875 158.17396 75.5625 175.9375 75.5625 z " id="rect2995" style="fill:#000000;fill-opacity:1;fill-rule:nonzero" transform="translate(0,552.36218)"/></g></svg>